:SAMPLES-PER-SECOND 30
:FULLY-SPECIFIED
:DEGREES
196
root  -9.26774 38.2266 1.06803 32.6085 84.279 39.0011
RightUpLeg  -17.4473 -6.75686 -4.85262
RightLeg  1.94497 2.45856 0.383389
RightFoot  -2.63893 -0.643863 8.15518
RightToes  5.47152e-009 0 -3.6325e-017
Spine  2.79944 -0.414843 -1.07335
Spine1  14.5793 0.00833974 -2.46218
HEad  -7.59549 3.36473 -5.67129
LeftShoulder1  -0.255737 4.28298 -26.6012
LeftArm  -15.4164 6.04462 -39.2479
LeftForeArm  75.6337 -78.9137 -96.4292
LeftHand  -0.0273009 5.22629 -4.05458
RightShoulder  -0.457842 -4.8684 26.6771
RightArm  -17.8567 -11.7503 41.0737
RightForeArm  111.715 70.9563 143.794
RightHand  -0.0368327 -4.49997 -1.76065
LeftUpLeg  17.6974 8.8842 -1.84927
LeftLeg  12.3315 3.56134 -0.306211
LeftFoot  -21.3611 0.253118 1.42784
LeftToes  -4.29285e-010 1.49941e-010 2.15559e-012
197
root  -7.85564 38.0399 1.28466 30.6295 85.9947 36.8363
RightUpLeg  -18.8804 -7.04926 -3.46256
RightLeg  8.2937 1.76974 0.763849
RightFoot  0.785049 -0.357534 3.64423
RightToes  5.47152e-009 0 -3.6325e-017
Spine  1.90055 -0.803555 0.220481
Spine1  15.2959 -0.832548 -0.900629
HEad  -7.3468 3.14198 -6.37815
LeftShoulder1  -0.281255 4.35245 -26.9397
LeftArm  -15.2901 6.94347 -39.2032
LeftForeArm  74.8327 -78.9396 -95.4567
LeftHand  -0.027742 5.24054 -4.24069
RightShoulder  -0.495743 -4.97521 26.822
RightArm  -17.3564 -11.8053 40.5116
RightForeArm  111.314 71.0121 143.627
RightHand  -0.0488084 -3.89287 -2.29219
LeftUpLeg  20.0589 9.07545 0.282465
LeftLeg  12.1334 1.27822 -0.00966005
LeftFoot  -22.5413 0.109059 -0.268119
LeftToes  -4.29285e-010 1.49941e-010 2.15559e-012
198
root  -6.34004 37.9043 1.61545 6.86742 87.4574 12.6293
RightUpLeg  -20.1068 -5.85726 -1.25882
RightLeg  12.9289 1.4696 0.472144
RightFoot  7.27326 -0.0801234 0.668691
RightToes  5.47152e-009 0 -3.6325e-017
Spine  0.867886 -0.627487 3.10642
Spine1  15.4687 -0.722757 -0.551774
HEad  -6.9276 2.18204 -6.32934
LeftShoulder1  -0.303807 4.4142 -27.1603
LeftArm  -14.2635 7.4759 -38.8311
LeftForeArm  73.7399 -78.9684 -94.1692
LeftHand  -0.0383576 5.47702 -4.71396
RightShoulder  -0.608327 -5.27924 27.5453
RightArm  -17.2922 -12.9729 39.4401
RightForeArm  111.704 70.6283 144.452
RightHand  -0.0464054 -4.12191 -2.30274
LeftUpLeg  21.4576 9.05228 3.46371
LeftLeg  13.6251 -1.11188 -0.056614
LeftFoot  -22.9652 -0.159348 -2.90556
LeftToes  -4.29285e-010 1.49941e-010 2.15559e-012
199
root  -4.86136 37.7351 1.89972 -22.3745 88.6263 -15.6641
RightUpLeg  -20.275 -5.86406 -0.303555
RightLeg  20.0569 1.22225 0.253194
RightFoot  5.36085 0.188742 -1.03727
RightToes  5.47152e-009 0 -3.6325e-017
Spine  2.1833 -0.982538 5.19422
Spine1  14.8698 -0.985799 -0.455983
HEad  -6.99333 1.84618 -6.2048
LeftShoulder1  -0.352483 4.54313 -27.7309
LeftArm  -13.8079 8.22426 -38.2881
LeftForeArm  74.5981 -78.9777 -94.6406
LeftHand  -0.0490376 5.70524 -4.66616
RightShoulder  -0.597692 -5.23996 27.6791
RightArm  -17.2491 -13.9121 39.0644
RightForeArm  112.74 70.6963 144.445
RightHand  -0.0355914 -4.22123 -1.38337
LeftUpLeg  22.5981 6.33628 4.82102
LeftLeg  17.7999 -1.63184 -0.00073886
LeftFoot  -22.4876 -0.558921 -7.10236
LeftToes  -4.29285e-010 1.49941e-010 2.15559e-012
200
root  -3.4905 37.6575 2.16801 -72.7855 87.7318 -65.9407
RightUpLeg  -19.8385 -6.23393 1.35815
RightLeg  23.981 1.00848 0.276641
RightFoot  2.93576 0.302364 -2.26108
RightToes  5.47152e-009 0 -3.6325e-017
Spine  2.74481 -1.26193 8.28413
Spine1  14.6381 -0.84565 -0.478448
HEad  -6.6155 1.74829 -6.32698
LeftShoulder1  -0.38917 4.63445 -28.2377
LeftArm  -13.7515 9.77977 -37.5219
LeftForeArm  75.8713 -78.93 -96.3272
LeftHand  -0.0356311 5.41715 -4.76397
RightShoulder  -0.62089 -5.30033 27.8189
RightArm  -16.3172 -13.7283 38.893
RightForeArm  111.529 71.3138 143.019
RightHand  -0.0374638 -4.03646 -1.42686
LeftUpLeg  20.8191 3.9829 6.59475
LeftLeg  25.2217 -1.75882 -0.615778
LeftFoot  -19.8302 -0.786689 -12.6576
LeftToes  -4.29285e-010 1.49941e-010 2.15559e-012
